<?xml version="1.0" encoding="UTF-8"?>
<svg xmlns="http://www.w3.org/2000/svg" xmlns:xlink="http://www.w3.org/1999/xlink" width="28px" height="31px" viewBox="0 0 28 28" version="1.1">
<g id="surface1">
<path style=" stroke:none;fill-rule:nonzero;fill:rgb(0%,0%,0%);fill-opacity:1;" d="M 5.832031 2.332031 L 22.167969 2.332031 C 22.8125 2.332031 23.332031 2.855469 23.332031 3.5 L 23.332031 25.832031 C 23.332031 26.046875 23.21875 26.242188 23.03125 26.34375 C 22.847656 26.449219 22.621094 26.441406 22.441406 26.328125 L 14 21.035156 L 5.558594 26.328125 C 5.378906 26.441406 5.152344 26.445312 4.96875 26.34375 C 4.78125 26.242188 4.667969 26.046875 4.667969 25.832031 L 4.667969 3.5 C 4.667969 2.855469 5.1875 2.332031 5.832031 2.332031 Z M 21 4.667969 L 7 4.667969 L 7 22.671875 L 14 18.28125 L 21 22.671875 Z M 21 4.667969 "/>
</g>
</svg>
