<?xml version="1.0" encoding="UTF-8"?>
<svg xmlns="http://www.w3.org/2000/svg" xmlns:xlink="http://www.w3.org/1999/xlink" width="28px" height="31px" viewBox="0 0 28 28" version="1.1">
<g id="surface1">
<path style=" stroke:none;fill-rule:nonzero;fill:rgb(0%,0%,0%);fill-opacity:1;" d="M 2.582031 16.402344 C 2.246094 14.820312 2.246094 13.179688 2.582031 11.597656 C 3.875 11.75 5.007812 11.320312 5.378906 10.429688 C 5.746094 9.535156 5.25 8.433594 4.226562 7.625 C 5.109375 6.269531 6.269531 5.109375 7.625 4.226562 C 8.433594 5.25 9.535156 5.746094 10.429688 5.378906 C 11.320312 5.007812 11.75 3.875 11.597656 2.582031 C 13.179688 2.246094 14.820312 2.246094 16.402344 2.582031 C 16.25 3.875 16.679688 5.007812 17.570312 5.378906 C 18.464844 5.746094 19.566406 5.25 20.375 4.226562 C 21.730469 5.109375 22.890625 6.269531 23.773438 7.625 C 22.75 8.433594 22.253906 9.535156 22.621094 10.429688 C 22.992188 11.320312 24.125 11.75 25.417969 11.597656 C 25.753906 13.179688 25.753906 14.820312 25.417969 16.402344 C 24.125 16.25 22.992188 16.679688 22.621094 17.570312 C 22.253906 18.464844 22.75 19.566406 23.773438 20.375 C 22.890625 21.730469 21.730469 22.890625 20.375 23.773438 C 19.566406 22.75 18.464844 22.253906 17.570312 22.621094 C 16.679688 22.992188 16.25 24.125 16.402344 25.417969 C 14.820312 25.753906 13.179688 25.753906 11.597656 25.417969 C 11.75 24.125 11.320312 22.992188 10.429688 22.621094 C 9.535156 22.253906 8.433594 22.75 7.625 23.773438 C 6.269531 22.890625 5.109375 21.730469 4.226562 20.375 C 5.25 19.566406 5.746094 18.464844 5.378906 17.570312 C 5.007812 16.679688 3.875 16.25 2.582031 16.402344 Z M 4.667969 14.246094 C 5.949219 14.601562 7.007812 15.414062 7.53125 16.679688 C 8.058594 17.945312 7.882812 19.269531 7.226562 20.425781 C 7.339844 20.546875 7.453125 20.660156 7.574219 20.773438 C 8.734375 20.117188 10.054688 19.945312 11.320312 20.46875 C 12.585938 20.992188 13.398438 22.050781 13.753906 23.332031 C 13.917969 23.339844 14.082031 23.339844 14.246094 23.332031 C 14.601562 22.050781 15.414062 20.992188 16.679688 20.46875 C 17.945312 19.941406 19.269531 20.117188 20.425781 20.773438 C 20.546875 20.660156 20.660156 20.546875 20.773438 20.425781 C 20.117188 19.265625 19.945312 17.945312 20.46875 16.679688 C 20.992188 15.414062 22.050781 14.601562 23.332031 14.246094 C 23.339844 14.082031 23.339844 13.917969 23.332031 13.753906 C 22.050781 13.398438 20.992188 12.585938 20.46875 11.320312 C 19.941406 10.054688 20.117188 8.730469 20.773438 7.574219 C 20.660156 7.457031 20.542969 7.339844 20.425781 7.226562 C 19.265625 7.882812 17.945312 8.054688 16.679688 7.53125 C 15.414062 7.007812 14.601562 5.949219 14.246094 4.667969 C 14.082031 4.664062 13.917969 4.664062 13.753906 4.667969 C 13.398438 5.949219 12.585938 7.007812 11.320312 7.53125 C 10.054688 8.058594 8.730469 7.882812 7.574219 7.226562 C 7.453125 7.339844 7.339844 7.453125 7.226562 7.574219 C 7.882812 8.734375 8.054688 10.054688 7.53125 11.320312 C 7.007812 12.585938 5.949219 13.398438 4.667969 13.753906 C 4.660156 13.917969 4.660156 14.082031 4.667969 14.246094 Z M 14 17.5 C 12.066406 17.5 10.5 15.933594 10.5 14 C 10.5 12.066406 12.066406 10.5 14 10.5 C 15.933594 10.5 17.5 12.066406 17.5 14 C 17.5 15.933594 15.933594 17.5 14 17.5 Z M 14 15.167969 C 14.644531 15.167969 15.167969 14.644531 15.167969 14 C 15.167969 13.355469 14.644531 12.832031 14 12.832031 C 13.355469 12.832031 12.832031 13.355469 12.832031 14 C 12.832031 14.644531 13.355469 15.167969 14 15.167969 Z M 14 15.167969 "/>
</g>
</svg>
